<svg width="154" height="58" viewBox="0 0 154 58" fill="none" xmlns="http://www.w3.org/2000/svg">
  <path d="M32.7409 19.7061C35.0474 17.3807 38.1759 16.2164 42.1267 16.2133C46.0774 16.2101 49.2154 17.387 51.5407 19.7437C53.8722 22.0942 55.038 25.2439 55.038 29.1928C55.038 33.1416 53.8722 36.2756 51.5407 38.5948C49.2123 40.9233 46.0743 42.0861 42.1267 42.0829C38.1791 42.0798 35.0505 40.9171 32.7409 38.5948C30.4345 36.2662 29.2829 33.1322 29.286 29.1928C29.286 25.1969 30.4376 22.0347 32.7409 19.7061ZM45.9205 22.0566C44.9603 20.1762 43.7443 19.236 42.2726 19.236C40.6534 19.236 39.337 20.1543 38.3234 21.9908C37.3099 23.8273 36.8031 26.228 36.8031 29.1928C36.8031 32.2014 37.2738 34.5911 38.2152 36.3618C39.1566 38.1325 40.4118 39.0179 41.9808 39.0179C43.5498 39.0179 44.8411 38.1215 45.8546 36.3289C46.8682 34.5362 47.375 32.2014 47.375 29.3244C47.3719 26.3534 46.8886 23.9276 45.9252 22.0472L45.9205 22.0566Z" fill="url(#paint0_linear_350_3249)"/>
  <path d="M81.0959 24.5623H81.2513C81.8653 22.2914 83.0703 20.2235 84.7439 18.5685C86.3694 17.0015 88.0953 16.218 89.9216 16.218C92.0993 16.218 93.6825 16.9388 94.6709 18.3804C95.6594 19.8221 96.1536 22.0613 96.1536 25.0982V37.0858C96.1536 38.6058 96.6353 39.3642 97.5987 39.361C98.4769 39.3436 99.3271 39.0491 100.027 38.5196C100.136 38.4445 100.268 38.4134 100.399 38.4326C100.529 38.4518 100.647 38.5199 100.729 38.623C100.809 38.7229 100.85 38.8483 100.845 38.9761C100.84 39.1039 100.788 39.2256 100.701 39.3187C99.9025 40.1928 98.9305 40.8909 97.8469 41.3685C96.7633 41.846 95.5918 42.0926 94.4073 42.0923C92.5245 42.0923 91.216 41.5987 90.4535 40.6115C89.6909 39.6243 89.3144 37.8943 89.3144 35.4169V24.487C89.3144 21.5536 88.351 20.0853 86.4243 20.0822C84.8051 20.0822 83.5389 21.4408 82.6257 24.1439C81.6657 27.1741 81.2047 30.3399 81.2607 33.5177C81.2718 34.768 81.4106 36.014 81.6749 37.2362C81.915 38.1655 82.3045 39.0498 82.8281 39.8547L82.8846 39.9299L83.0776 40.1696C83.1872 40.3064 83.2469 40.4763 83.2469 40.6515C83.2469 40.8266 83.1872 40.9966 83.0776 41.1333C83.008 41.2198 82.9198 41.2896 82.8196 41.3376C82.7194 41.3856 82.6098 41.4106 82.4986 41.4107H76.3795C75.8552 41.4107 75.3524 41.2027 74.9816 40.8324C74.6109 40.4621 74.4026 39.9599 74.4026 39.4363V24.487C74.4026 21.5536 73.4392 20.0853 71.5125 20.0822C69.8933 20.0822 68.6271 21.4408 67.714 24.1439C66.7523 27.1738 66.2897 30.3396 66.3442 33.5177C66.3139 34.7663 66.4292 36.0142 66.6878 37.2362C66.9358 38.1819 67.3554 39.0742 67.9258 39.8688L67.9634 39.9205L68.1658 40.1696C68.2754 40.3064 68.3352 40.4763 68.3352 40.6515C68.3352 40.8266 68.2754 40.9966 68.1658 41.1333C68.0962 41.2198 68.008 41.2896 67.9079 41.3376C67.8077 41.3856 67.698 41.4106 67.5869 41.4107H57.4574C57.3067 41.412 57.1591 41.3678 57.034 41.2839C56.9088 41.2 56.812 41.0804 56.7561 40.9406C56.7217 40.841 56.7089 40.7353 56.7183 40.6304C56.7277 40.5255 56.7593 40.4238 56.8108 40.3319C56.8624 40.24 56.9328 40.16 57.0175 40.0972C57.1021 40.0344 57.1991 39.9902 57.3021 39.9675L57.5421 39.9158C58.1775 39.8252 58.7512 39.4872 59.1378 38.9756C59.3888 38.5493 59.5144 37.7016 59.5144 36.4323V21.6006C59.5144 20.8438 59.1849 20.463 58.5306 20.463H56.4878C56.3751 20.463 56.2654 20.4269 56.1748 20.3601C56.0841 20.2932 56.0173 20.1991 55.9841 20.0916V20.0446C55.9534 19.944 55.9535 19.8364 55.9846 19.7359C56.0156 19.6353 56.0761 19.5464 56.1583 19.4805C57.2273 18.6727 58.4171 18.0381 59.6838 17.6001C61.1407 17.0527 62.6837 16.7694 64.2402 16.7633C64.7909 16.7331 65.3369 16.8797 65.7982 17.1817C65.9834 17.3149 66.1324 17.4922 66.2318 17.6973C66.3313 17.9025 66.378 18.1292 66.3677 18.3569V20.8908C66.3689 21.0524 66.4227 21.2093 66.5212 21.3375C66.6196 21.4658 66.7573 21.5585 66.9133 21.6016C67.0693 21.6447 67.2351 21.6357 67.3855 21.5762C67.5359 21.5166 67.6628 21.4097 67.7469 21.2716C68.2929 20.3206 68.9572 19.4423 69.7238 18.6578C71.2928 17.0375 73.0658 16.2274 75.0428 16.2274C77.1201 16.2274 78.6389 16.8981 79.5991 18.2394C80.5593 19.5808 81.0583 21.6884 81.0959 24.5623Z" fill="url(#paint1_linear_350_3249)"/>
  <path d="M118.775 38.7922C119.901 38.2194 120.902 37.4302 121.722 36.4699C121.809 36.3698 121.93 36.306 122.062 36.2912C122.194 36.2764 122.326 36.3117 122.433 36.39L122.536 36.4699C122.648 36.5525 122.723 36.676 122.744 36.8134C122.765 36.9507 122.731 37.0909 122.649 37.2033C121.548 38.6599 120.135 39.8518 118.512 40.6914C116.692 41.634 114.669 42.1182 112.619 42.1017C110.44 42.1394 108.293 41.5744 106.416 40.4693C104.538 39.3642 103.003 37.762 101.981 35.84C100.894 33.7983 100.345 31.5141 100.385 29.2022C100.385 25.2533 101.589 22.1036 103.996 19.7531C106.402 17.4026 109.606 16.2258 113.607 16.2227C116.431 16.2227 118.75 16.8934 120.564 18.2347C121.407 18.8136 122.093 19.5907 122.564 20.4975C123.034 21.4043 123.274 22.4128 123.261 23.434C123.285 24.5833 123.014 25.7196 122.476 26.7355C121.937 27.7514 121.148 28.6133 120.183 29.2398C118.131 30.6814 115.332 31.4022 111.786 31.4022C110.712 31.4081 109.64 31.3405 108.575 31.2001C108.495 31.1905 108.413 31.1996 108.337 31.2268C108.26 31.2539 108.191 31.2983 108.134 31.3566C108.078 31.4148 108.036 31.4853 108.011 31.5625C107.986 31.6398 107.98 31.7217 107.992 31.8018C108.306 34.0991 109.038 35.9387 110.19 37.3208C110.746 38.0365 111.46 38.6142 112.277 39.0089C113.093 39.4036 113.99 39.6045 114.897 39.5961C116.234 39.6225 117.559 39.3477 118.775 38.7922ZM109.088 21.5066C108.2 23.0235 107.756 25.1421 107.756 27.8624V28.403C107.763 28.4676 107.782 28.5303 107.814 28.587C107.845 28.6438 107.888 28.6933 107.94 28.7326C107.992 28.772 108.051 28.8001 108.114 28.8154C108.177 28.8307 108.243 28.8327 108.307 28.8214C108.745 28.8214 109.249 28.7697 109.809 28.7133C111.936 28.5127 113.57 27.9548 114.709 27.0397C115.261 26.6149 115.704 26.0653 116.002 25.436C116.3 24.8067 116.444 24.1157 116.422 23.4199C116.463 22.325 116.097 21.2537 115.396 20.4113C115.077 20.0286 114.675 19.7232 114.221 19.518C113.767 19.3128 113.272 19.2132 112.774 19.2266C111.202 19.2266 109.973 19.9866 109.088 21.5066Z" fill="url(#paint2_linear_350_3249)"/>
  <path d="M140.592 17.0312C141.677 16.947 142.767 17.0875 143.795 17.4441C144.822 17.8006 145.765 18.3654 146.564 19.103C147.362 19.8406 148 20.7351 148.436 21.7304C148.872 22.7256 149.097 23.8002 149.098 24.8866V41.4106C149.098 45.4065 147.945 48.506 145.638 50.7092C143.332 52.9124 140.128 54.0093 136.027 53.9999C133.494 53.9999 131.442 53.5189 129.87 52.5567C128.303 51.6165 127.516 50.3285 127.516 48.763C127.49 48.1614 127.583 47.5606 127.792 46.9956C128 46.4306 128.32 45.9127 128.731 45.4723C129.146 45.0525 129.644 44.7239 130.194 44.5077C130.743 44.2916 131.332 44.1926 131.922 44.2171H131.95C132.236 44.2179 132.517 44.2865 132.771 44.4171C133.025 44.5478 133.244 44.7368 133.411 44.9686C133.577 45.2005 133.686 45.4685 133.728 45.7506C133.771 46.0326 133.745 46.3208 133.654 46.5912C133.454 47.2235 133.358 47.8837 133.367 48.5468C133.349 49.0472 133.43 49.5463 133.606 50.0151C133.782 50.484 134.05 50.9132 134.393 51.2781C134.732 51.628 135.14 51.9033 135.592 52.0863C136.043 52.2693 136.528 52.3559 137.015 52.3405C140.561 52.3405 142.334 49.4556 142.334 43.6859V37.3866C142.334 37.2115 142.279 37.0409 142.177 36.8985C142.075 36.7561 141.931 36.649 141.765 36.5921C141.6 36.5352 141.42 36.5313 141.252 36.581C141.084 36.6307 140.936 36.7316 140.828 36.8695C140.269 37.596 139.613 38.2428 138.879 38.7922C137.377 39.9906 135.516 40.6526 133.593 40.6726C131.365 40.6726 129.719 39.9894 128.656 38.6229C127.592 37.2565 127.06 35.1818 127.06 32.3988V21.0694C127.06 20.3642 127.201 20.0069 126.542 20.0069H124.589C124.473 20.007 124.361 19.9694 124.269 19.8998C124.178 19.8301 124.111 19.7324 124.08 19.6215L124.047 19.4992C124.021 19.402 124.023 19.2995 124.052 19.2032C124.081 19.1068 124.137 19.0205 124.212 18.9539C125.277 18.1263 126.007 17.4901 127.291 17.0735C128.725 16.5396 130.241 16.2565 131.772 16.2367C132.33 16.209 132.88 16.3751 133.33 16.7068C133.514 16.8498 133.661 17.0342 133.76 17.245C133.859 17.4558 133.907 17.687 133.899 17.9197V33.2309C133.899 36.0515 134.786 37.4696 136.559 37.4853C138.281 37.4853 139.675 36.4479 140.738 34.3732C141.802 32.2985 142.334 29.5406 142.334 26.0995C142.364 24.5924 142.206 23.0874 141.863 21.6194C141.591 20.5228 141.101 19.4918 140.423 18.5872L140.188 18.2629C140.078 18.1171 140.019 17.9398 140.019 17.7575C140.019 17.5752 140.078 17.3979 140.188 17.2521C140.232 17.1934 140.289 17.1449 140.354 17.11C140.419 17.0752 140.491 17.0547 140.564 17.05L140.592 17.0312Z" fill="url(#paint3_linear_350_3249)"/>
  <path d="M12.5055 40.9688C11.421 41.053 10.3308 40.9125 9.30323 40.5559C8.27568 40.1994 7.333 39.6346 6.53434 38.897C5.73569 38.1594 5.09831 37.2649 4.66218 36.2696C4.22606 35.2744 4.00062 34.1998 4 33.1134V16.5894C4 12.5935 5.15321 9.49397 7.45964 7.29077C9.76607 5.08756 12.97 3.99066 17.0713 4.00006C19.6037 4.00006 21.656 4.48113 23.2281 5.44327C24.7955 6.38347 25.5816 7.67155 25.5816 9.23698C25.6082 9.83856 25.5146 10.4394 25.306 11.0044C25.0975 11.5694 24.7784 12.0873 24.3672 12.5277C23.9523 12.9476 23.454 13.2761 22.9044 13.4923C22.3548 13.7084 21.766 13.8074 21.1758 13.7829H21.1476C20.8647 13.7809 20.5863 13.7124 20.3348 13.5831C20.0834 13.4537 19.8659 13.2671 19.7 13.0383C19.5341 12.8095 19.4245 12.5449 19.38 12.2659C19.3354 11.9869 19.3572 11.7014 19.4437 11.4324C19.6435 10.8 19.7405 10.1398 19.7308 9.47673C19.7492 8.97631 19.668 8.47721 19.4918 8.00837C19.3157 7.53953 19.0481 7.11026 18.7047 6.74545C18.366 6.39549 17.9578 6.12018 17.5063 5.9372C17.0548 5.75423 16.5699 5.66764 16.0829 5.68301C12.5369 5.68301 10.764 8.56787 10.764 14.3376V20.6369C10.7642 20.812 10.8191 20.9826 10.9211 21.125C11.023 21.2674 11.1669 21.3745 11.3326 21.4314C11.4984 21.4883 11.6778 21.4922 11.8458 21.4425C12.0139 21.3928 12.1622 21.2919 12.2702 21.154C12.8291 20.4275 13.4847 19.7807 14.2189 19.2313C15.7213 18.0329 17.5821 17.3709 19.5049 17.3509C21.7297 17.3509 23.3756 18.0341 24.4425 19.4006C25.5094 20.767 26.0413 22.8417 26.0382 25.6247V36.9353C26.0382 37.6405 25.897 37.9978 26.5559 37.9978H28.5093C28.6246 37.9977 28.7368 38.0353 28.8286 38.1049C28.9204 38.1746 28.9868 38.2723 29.0177 38.3832L29.0506 38.5055C29.0767 38.6027 29.0751 38.7052 29.046 38.8015C29.0169 38.8979 28.9615 38.9842 28.8859 39.0508C27.8227 39.8867 27.0924 40.531 25.8075 40.9547C24.3731 41.4886 22.8572 41.7717 21.3265 41.7915C20.7683 41.8192 20.2178 41.6531 19.7684 41.3214C19.5845 41.1784 19.437 40.994 19.338 40.7832C19.239 40.5724 19.1913 40.3412 19.1989 40.1085V24.7691C19.1989 21.9485 18.3124 20.5382 16.5394 20.5382C14.8167 20.5382 13.4234 21.5756 12.3596 23.6503C11.2958 25.725 10.764 28.4829 10.764 31.9241C10.7336 33.4311 10.8917 34.9361 11.2347 36.4041C11.5073 37.5007 11.997 38.5317 12.675 39.4363L12.9103 39.7606C13.02 39.9064 13.0792 40.0837 13.0792 40.266C13.0792 40.4483 13.02 40.6256 12.9103 40.7714C12.8658 40.8301 12.8091 40.8786 12.7442 40.9135C12.6792 40.9483 12.6074 40.9688 12.5338 40.9735L12.5055 40.9688Z" fill="url(#paint4_linear_350_3249)"/>
  <defs>
    <linearGradient id="paint0_linear_350_3249" x1="149" y1="54" x2="82.4326" y2="-47.4595" gradientUnits="userSpaceOnUse">
      <stop stop-color="#344054"/>
      <stop offset="1" stop-color="#1D2939"/>
    </linearGradient>
    <linearGradient id="paint1_linear_350_3249" x1="149" y1="54" x2="82.4326" y2="-47.4595" gradientUnits="userSpaceOnUse">
      <stop stop-color="#344054"/>
      <stop offset="1" stop-color="#1D2939"/>
    </linearGradient>
    <linearGradient id="paint2_linear_350_3249" x1="149" y1="54" x2="82.4326" y2="-47.4595" gradientUnits="userSpaceOnUse">
      <stop stop-color="#344054"/>
      <stop offset="1" stop-color="#1D2939"/>
    </linearGradient>
    <linearGradient id="paint3_linear_350_3249" x1="149" y1="54" x2="82.4326" y2="-47.4595" gradientUnits="userSpaceOnUse">
      <stop stop-color="#344054"/>
      <stop offset="1" stop-color="#1D2939"/>
    </linearGradient>
    <linearGradient id="paint4_linear_350_3249" x1="149" y1="54" x2="82.4326" y2="-47.4595" gradientUnits="userSpaceOnUse">
      <stop stop-color="#344054"/>
      <stop offset="1" stop-color="#1D2939"/>
    </linearGradient>
  </defs>
</svg>
